<svg xmlns="http://www.w3.org/2000/svg" xmlns:xlink="http://www.w3.org/1999/xlink" viewBox="0 0 750 500" preserveAspectRatio="xMidYMax slice">
	<g id="clouds" fill="#fefefe">
		<path id="cloud2" transform="matrix(1,0,0,1,-311.4548,17.528)"
			  d="M402.34,341.68c9.9-10.24,23.76-7.43,36.05-5.48C448,332,458.88,329,468.9,334c-.95-7.91,8.65-14.92,15.9-11.61-3.34-11.77,13-13.9,20.53-8.34A13.53,13.53,0,0,1,522,310.16c2.64-18.11,27.85-24.13,38.38-9.17,3.54-5.51,12.12-6.88,17.2-2.74,6.59-43.22,70.78-27.93,65.83,12.62,14.7-4.43,32,6.72,34.08,21.93,5.76-2.23,29.28,1,21.76,9.26"
			  style="transform-origin: 0px 0px;"></path>
		<path id="cloud1" transform="matrix(1,0,0,1,171.231,0)"
			  d="M402.18,271.3c-7.57-7.46-18.46-7.52-28.05-5.3-6.75-8.79-20.54-13.18-27.24-1.45-10.4-11.06-30.66-24.2-37.74-2.24a13.1,13.1,0,0,0-17.76,1.47c-11.23-25.69-58.46-41.29-64.24-4.06-9-8.26-20.15-2.62-27.47,4.4-11-2.87-22.18-7.58-31.72,2.7-8.44-.75-18.1-2.8-24.71,4.57"
			  style="transform-origin: 0px 0px;"></path>
	</g>
</svg>
